<svg id="Group_283" data-name="Group 283" xmlns="http://www.w3.org/2000/svg" xmlns:xlink="http://www.w3.org/1999/xlink" width="14" height="16.178" viewBox="0 0 14 16.178">
  <defs>
    <clipPath id="clip-path">
      <rect id="Rectangle_487" data-name="Rectangle 487" width="14" height="16.178" fill="#999"/>
    </clipPath>
  </defs>
  <g id="Group_282" data-name="Group 282" clip-path="url(#clip-path)">
    <path id="Path_653" data-name="Path 653" d="M14,133.883v.017c0,.493-.19.651-.677.565a.348.348,0,0,1-.321-.357,7.175,7.175,0,0,0-.23-1.686,5.985,5.985,0,0,0-1.628-2.737,5.819,5.819,0,0,0-2.794-1.524,5.99,5.99,0,0,0-3.23.145,5.713,5.713,0,0,0-2.38,1.485,5.922,5.922,0,0,0-1.679,3.468c-.035.287-.044.578-.066.867a.465.465,0,0,1-.022.15c-.076.172-.351.247-.66.185A.348.348,0,0,1,0,134.078a6.253,6.253,0,0,1,.292-2.069,6.809,6.809,0,0,1,5.494-4.882,6.679,6.679,0,0,1,6.545,2.366A6.739,6.739,0,0,1,14,133.883" transform="translate(-0.001 -118.309)" fill="#999"/>
    <path id="Path_654" data-name="Path 654" d="M51.464,0a3.722,3.722,0,0,1,3.73,3.757,3.735,3.735,0,1,1-7.47-.062A3.719,3.719,0,0,1,51.464,0m2.73,3.745A2.726,2.726,0,0,0,51.485,1a2.738,2.738,0,0,0-.055,5.476,2.729,2.729,0,0,0,2.764-2.729" transform="translate(-44.458 -0.001)" fill="#999"/>
  </g>
</svg>
