<svg xmlns="http://www.w3.org/2000/svg" xmlns:xlink="http://www.w3.org/1999/xlink" width="16" height="15.994" viewBox="0 0 16 15.994">
  <defs>
    <clipPath id="clip-path">
      <rect id="Rectangle_486" data-name="Rectangle 486" width="16" height="15.994" fill="#999"/>
    </clipPath>
  </defs>
  <g id="Group_281" data-name="Group 281" transform="translate(-192 -755)">
    <g id="Group_280" data-name="Group 280" transform="translate(192 755)">
      <g id="Group_279" data-name="Group 279" clip-path="url(#clip-path)">
        <path id="Path_649" data-name="Path 649" d="M3.805,7.655H.644C.131,7.655,0,7.523,0,7.009Q0,4.942,0,2.874A2.847,2.847,0,0,1,2.873.005H7.056c.439,0,.589.138.6.577.008.581,0,1.162,0,1.743q0,2.323,0,4.647c0,.548-.137.683-.687.684H3.805m2.942-.9V.883H6.5c-1.162,0-2.325,0-3.487,0A2,2,0,0,0,.88,3.016c0,1.17,0,2.339,0,3.509v.228Z" transform="translate(-0.001 -0.004)" fill="#999"/>
        <path id="Path_650" data-name="Path 650" d="M7.653,93.413q0,1.58,0,3.16c0,.484-.14.623-.619.623H2.873A2.848,2.848,0,0,1,0,94.328q0-2.079,0-4.159c0-.479.137-.621.621-.623,1.317,0,2.634,0,3.951,0q1.22,0,2.44,0c.485,0,.64.154.64.637q0,1.615,0,3.23M.893,90.447c-.006.057-.014.1-.014.147,0,1.232,0,2.463,0,3.695a2.2,2.2,0,0,0,.085.594,1.97,1.97,0,0,0,2.01,1.434c1.186,0,2.371,0,3.557,0,.068,0,.136-.008.212-.012V90.447Z" transform="translate(0 -81.202)" fill="#999"/>
        <path id="Path_651" data-name="Path 651" d="M89.751,3.815q0-1.615,0-3.229c0-.45.132-.585.574-.585q2.115,0,4.23,0a2.851,2.851,0,0,1,2.833,2.837q0,2.114,0,4.228c0,.421-.142.581-.566.582q-3.265.008-6.53,0c-.391,0-.539-.165-.54-.558q0-1.638,0-3.276M96.5,6.753c.005-.063.013-.108.013-.153,0-1.224,0-2.448,0-3.672a2.3,2.3,0,0,0-.086-.617A1.958,1.958,0,0,0,94.455.881c-1.209-.01-2.418,0-3.627,0-.06,0-.12.009-.187.014v5.86Z" transform="translate(-81.388 0)" fill="#999"/>
        <path id="Path_652" data-name="Path 652" d="M93.489,89.6a3.823,3.823,0,1,1-3.831,3.814A3.832,3.832,0,0,1,93.489,89.6m-2.95,3.835a2.941,2.941,0,1,0,2.924-2.948,2.948,2.948,0,0,0-2.924,2.948" transform="translate(-81.305 -81.248)" fill="#999"/>
      </g>
    </g>
  </g>
</svg>
