<svg id="Group_278" data-name="Group 278" xmlns="http://www.w3.org/2000/svg" xmlns:xlink="http://www.w3.org/1999/xlink" width="17" height="15.7" viewBox="0 0 17 15.7">
  <defs>
    <clipPath id="clip-path">
      <rect id="Rectangle_485" data-name="Rectangle 485" width="17" height="15.7" fill="#999"/>
    </clipPath>
  </defs>
  <g id="Group_277" data-name="Group 277" clip-path="url(#clip-path)">
    <path id="Path_647" data-name="Path 647" d="M8.5,1.325c.465-.269.9-.559,1.366-.784A4.583,4.583,0,0,1,13.209.166a5.274,5.274,0,0,1,2.267,1.4,4.9,4.9,0,0,1,1.432,2.68A5.04,5.04,0,0,1,15.464,8.9q-3.295,3.308-6.6,6.607a.436.436,0,0,1-.725,0Q4.834,12.2,1.527,8.89A4.984,4.984,0,0,1,.036,5.839a5.006,5.006,0,0,1,1.222-3.98A5,5,0,0,1,4.666.1,5.024,5.024,0,0,1,8.383,1.23l.127.1s.01,0-.013-.005m.013,13.44a1.759,1.759,0,0,1,.142-.2q1.8-1.8,3.605-3.6c.934-.936,1.893-1.849,2.79-2.82a4.15,4.15,0,0,0,.928-4.254,4.4,4.4,0,0,0-1.885-2.41A3.6,3.6,0,0,0,11.319.915a5.613,5.613,0,0,0-2.328,1.1c-.474.358-.541.356-.977-.039A4.037,4.037,0,0,0,5.963.97,4.172,4.172,0,0,0,2.2,2.063a4.213,4.213,0,0,0-1.178,4.5A4.221,4.221,0,0,0,2.161,8.38L8.382,14.6c.034.034.059.075.129.166" transform="translate(0 0)" fill="#999"/>
    <path id="Path_648" data-name="Path 648" d="M164.01,36.273a2.9,2.9,0,0,1-.435,1.514.407.407,0,1,1-.7-.4,2.122,2.122,0,0,0,.316-1.247,2.023,2.023,0,0,0-1.87-1.872,1.036,1.036,0,0,1-.361-.083.344.344,0,0,1-.18-.41.338.338,0,0,1,.306-.306,2.57,2.57,0,0,1,.605.028,2.845,2.845,0,0,1,2.317,2.78" transform="translate(-149.223 -31.055)" fill="#999"/>
  </g>
</svg>
