<svg id="Group_276" data-name="Group 276" xmlns="http://www.w3.org/2000/svg" xmlns:xlink="http://www.w3.org/1999/xlink" width="19" height="15.86" viewBox="0 0 19 15.86">
  <defs>
    <clipPath id="clip-path">
      <rect id="Rectangle_484" data-name="Rectangle 484" width="19" height="15.86" fill="#420000"/>
    </clipPath>
  </defs>
  <g id="Group_275" data-name="Group 275" clip-path="url(#clip-path)">
    <path id="Path_646" data-name="Path 646" d="M15.772,8.193v.3c0,1.913,0,3.826,0,5.739a1.491,1.491,0,0,1-.82,1.454,1.371,1.371,0,0,1-.584.154c-.717.012-1.436.025-2.15-.022a1.357,1.357,0,0,1-1.238-1.307c-.026-.794-.012-1.589-.014-2.384,0-.317,0-.633,0-.95a.576.576,0,0,0-.638-.641c-.535,0-1.069,0-1.6,0-.491,0-.7.2-.7.689,0,1.034,0,2.068,0,3.1a1.425,1.425,0,0,1-1.09,1.47,1.057,1.057,0,0,1-.269.045c-.689,0-1.381.044-2.066-.008A1.429,1.429,0,0,1,3.229,14.27c0-1.681,0-3.362,0-5.043V8.2l-.808.566A1.057,1.057,0,0,1,.743,8.466Q.5,8.12.26,7.774a1.037,1.037,0,0,1,.28-1.6Q3.011,4.44,5.484,2.713L9.115.174c.334-.234.437-.233.774,0l8.558,5.984a1.056,1.056,0,0,1,.508,1.21.843.843,0,0,1-.1.229c-.224.332-.441.67-.685.988a1.019,1.019,0,0,1-1.5.23c-.284-.193-.562-.393-.891-.624m-11.64,2.85q0,1.635,0,3.271a.555.555,0,0,0,.633.637q.865.007,1.731,0a.567.567,0,0,0,.645-.65c0-1.013,0-2.026,0-3.038a3.281,3.281,0,0,1,.019-.358A1.41,1.41,0,0,1,8.509,9.655c.668-.015,1.337,0,2,0a.92.92,0,0,1,.228.029,1.451,1.451,0,0,1,1.115,1.475c0,1.041,0,2.082,0,3.123,0,.468.2.666.668.668q.834,0,1.667,0c.486,0,.673-.192.673-.682q0-3.26,0-6.52a.33.33,0,0,0-.16-.309Q12.183,5.681,9.664,3.911a.24.24,0,0,0-.33,0Q6.815,5.683,4.287,7.441a.329.329,0,0,0-.158.31c.005,1.1,0,2.194,0,3.292M18.123,7.07a1.957,1.957,0,0,0-.191-.174Q13.8,4,9.662,1.1a.237.237,0,0,0-.326,0Q6.421,3.152,3.5,5.192c-.812.568-1.621,1.139-2.436,1.7-.159.109-.208.2-.075.369.178.226.332.471.5.707.155.221.168.223.4.062L9.148,2.959a.483.483,0,0,1,.705,0l2.8,1.957q2.24,1.564,4.478,3.131c.162.114.261.118.373-.06.16-.256.343-.5.515-.746.032-.046.058-.1.1-.171" transform="translate(0.001 0)" fill="#420000"/>
  </g>
</svg>
