<svg xmlns="http://www.w3.org/2000/svg" xmlns:xlink="http://www.w3.org/1999/xlink" width="144.154" height="137.828" viewBox="0 0 144.154 137.828">
  <defs>
    <clipPath id="clip-path">
      <rect id="Rectangle_401" data-name="Rectangle 401" width="144.154" height="137.828" fill="#fff"/>
    </clipPath>
  </defs>
  <g id="Group_229" data-name="Group 229" clip-path="url(#clip-path)">
    <path id="Path_382" data-name="Path 382" d="M8.166,394.716c.194,0,.292.076.292.225v.488a.262.262,0,0,1-.292.3h-3.2a3.377,3.377,0,0,1-1.277-.215,2.4,2.4,0,0,1-.851-.558,2.081,2.081,0,0,1-.47-.779,2.759,2.759,0,0,1-.146-.88,3.135,3.135,0,0,1,.2-1.109,2.959,2.959,0,0,1,.54-.919,2.522,2.522,0,0,1,.819-.621,2.366,2.366,0,0,1,1.036-.228,2.515,2.515,0,0,1,.965.178,2.071,2.071,0,0,1,.731.5,2.223,2.223,0,0,1,.464.769,2.847,2.847,0,0,1,.165.985v1.868Zm-2.04,0v-1.463a2.266,2.266,0,0,0-.361-1.367,1.219,1.219,0,0,0-1.046-.49,1.394,1.394,0,0,0-.557.114,1.481,1.481,0,0,0-.482.337,1.665,1.665,0,0,0-.342.528,1.775,1.775,0,0,0-.127.687,1.889,1.889,0,0,0,.139.763,1.352,1.352,0,0,0,.38.515,1.528,1.528,0,0,0,.545.286,2.29,2.29,0,0,0,.646.089Zm-2.775-6.222a.583.583,0,0,1,.995-.412.582.582,0,1,1-.824.824.561.561,0,0,1-.171-.412m1.685,0a.584.584,0,1,1,.171.412.562.562,0,0,1-.171-.412" transform="translate(-1.589 -277.366)" fill="#fff"/>
    <path id="Path_383" data-name="Path 383" d="M21.68,412.8q-.292,0-.291-.225v-.488a.262.262,0,0,1,.291-.3H23.4c.194,0,.291.08.291.238v.476a.262.262,0,0,1-.291.3Z" transform="translate(-15.294 -294.438)" fill="#fff"/>
    <path id="Path_384" data-name="Path 384" d="M27.105,412.8q-.292,0-.291-.225v-.488a.262.262,0,0,1,.291-.3h1.724c.194,0,.291.08.291.238v.476a.262.262,0,0,1-.291.3Z" transform="translate(-19.173 -294.438)" fill="#fff"/>
    <path id="Path_385" data-name="Path 385" d="M32.53,412.8q-.292,0-.291-.225v-.488a.262.262,0,0,1,.291-.3h1.724c.194,0,.291.08.291.238v.476a.262.262,0,0,1-.291.3Z" transform="translate(-23.052 -294.438)" fill="#fff"/>
    <path id="Path_386" data-name="Path 386" d="M37.954,412.8q-.292,0-.291-.225v-.488a.262.262,0,0,1,.291-.3h1.724c.194,0,.291.08.291.238v.476a.262.262,0,0,1-.291.3Z" transform="translate(-26.93 -294.438)" fill="#fff"/>
    <path id="Path_387" data-name="Path 387" d="M43.378,412.8q-.292,0-.291-.225v-.488a.262.262,0,0,1,.291-.3H45.1c.194,0,.291.08.291.238v.476a.262.262,0,0,1-.291.3Z" transform="translate(-30.808 -294.438)" fill="#fff"/>
    <path id="Path_388" data-name="Path 388" d="M48.8,412.8q-.292,0-.291-.225v-.488a.262.262,0,0,1,.291-.3h1.724c.194,0,.291.08.291.238v.476a.262.262,0,0,1-.291.3Z" transform="translate(-34.687 -294.438)" fill="#fff"/>
    <path id="Path_389" data-name="Path 389" d="M54.228,412.8q-.292,0-.291-.225v-.488a.262.262,0,0,1,.291-.3h1.724c.194,0,.291.08.291.238v.476a.262.262,0,0,1-.291.3Z" transform="translate(-38.566 -294.438)" fill="#fff"/>
    <path id="Path_390" data-name="Path 390" d="M59.653,412.8q-.292,0-.291-.225v-.488a.262.262,0,0,1,.291-.3h1.724c.194,0,.291.08.291.238v.476a.262.262,0,0,1-.291.3Z" transform="translate(-42.445 -294.438)" fill="#fff"/>
    <path id="Path_391" data-name="Path 391" d="M65.077,412.8q-.292,0-.291-.225v-.488a.262.262,0,0,1,.291-.3H66.8c.194,0,.291.08.291.238v.476a.262.262,0,0,1-.291.3Z" transform="translate(-46.324 -294.438)" fill="#fff"/>
    <path id="Path_392" data-name="Path 392" d="M70.5,412.8q-.292,0-.291-.225v-.488a.262.262,0,0,1,.291-.3h1.724c.194,0,.291.08.291.238v.476a.262.262,0,0,1-.291.3Z" transform="translate(-50.202 -294.438)" fill="#fff"/>
    <path id="Path_393" data-name="Path 393" d="M75.926,412.8q-.292,0-.291-.225v-.488a.262.262,0,0,1,.291-.3H77.65c.194,0,.291.08.291.238v.476a.262.262,0,0,1-.291.3Z" transform="translate(-54.081 -294.438)" fill="#fff"/>
    <path id="Path_394" data-name="Path 394" d="M81.351,412.8q-.292,0-.291-.225v-.488a.262.262,0,0,1,.291-.3h1.724c.194,0,.291.08.291.238v.476a.262.262,0,0,1-.291.3Z" transform="translate(-57.96 -294.438)" fill="#fff"/>
    <path id="Path_395" data-name="Path 395" d="M86.776,412.8q-.292,0-.291-.225v-.488a.262.262,0,0,1,.291-.3H88.5c.194,0,.291.08.291.238v.476a.262.262,0,0,1-.291.3Z" transform="translate(-61.839 -294.438)" fill="#fff"/>
    <path id="Path_396" data-name="Path 396" d="M92.2,392.55q-.292,0-.291-.225v-.488a.262.262,0,0,1,.291-.3h1.926v-8.072H95.14v6.083a6.139,6.139,0,0,1,.754-1.166,3.841,3.841,0,0,1,.824-.75,3.016,3.016,0,0,1,.868-.4,3.389,3.389,0,0,1,.887-.12,2.966,2.966,0,0,1,1.248.247,2.635,2.635,0,0,1,.906.67,2.8,2.8,0,0,1,.551,1.005,4.142,4.142,0,0,1,.184,1.252v2.263Zm8.123-2.108a3.466,3.466,0,0,0-.152-1.106,1.826,1.826,0,0,0-.418-.712,1.516,1.516,0,0,0-.64-.382,2.744,2.744,0,0,0-.8-.114,2.482,2.482,0,0,0-1.045.242,3.325,3.325,0,0,0-.969.687,4.165,4.165,0,0,0-1.166,2.48h5.2Z" transform="translate(-65.717 -274.186)" fill="#fff"/>
    <path id="Path_397" data-name="Path 397" d="M131.751,383.463h1.014v8.072h.988c.194,0,.292.076.292.225v.488a.262.262,0,0,1-.292.3h-2Z" transform="translate(-94.205 -274.185)" fill="#fff"/>
    <path id="Path_398" data-name="Path 398" d="M137.377,412.8q-.292,0-.291-.225v-.488a.262.262,0,0,1,.291-.3H139.1c.194,0,.291.08.291.238v.476a.262.262,0,0,1-.291.3Z" transform="translate(-98.02 -294.438)" fill="#fff"/>
    <path id="Path_399" data-name="Path 399" d="M142.8,412.8q-.292,0-.291-.225v-.488a.262.262,0,0,1,.291-.3h1.724c.194,0,.291.08.291.238v.476a.262.262,0,0,1-.291.3Z" transform="translate(-101.899 -294.438)" fill="#fff"/>
    <path id="Path_400" data-name="Path 400" d="M148.227,412.8q-.292,0-.291-.225v-.488a.262.262,0,0,1,.291-.3h1.724c.194,0,.291.08.291.238v.476a.262.262,0,0,1-.291.3Z" transform="translate(-105.778 -294.438)" fill="#fff"/>
    <path id="Path_401" data-name="Path 401" d="M153.652,412.8q-.292,0-.291-.225v-.488a.262.262,0,0,1,.291-.3h1.724c.194,0,.291.08.291.238v.476a.262.262,0,0,1-.291.3Z" transform="translate(-109.657 -294.438)" fill="#fff"/>
    <path id="Path_402" data-name="Path 402" d="M159.076,412.8q-.292,0-.291-.225v-.488a.262.262,0,0,1,.291-.3H160.8c.194,0,.291.08.291.238v.476a.262.262,0,0,1-.291.3Z" transform="translate(-113.535 -294.438)" fill="#fff"/>
    <path id="Path_403" data-name="Path 403" d="M164.5,412.8q-.292,0-.291-.225v-.488a.262.262,0,0,1,.291-.3h1.724c.194,0,.291.08.291.238v.476a.262.262,0,0,1-.291.3Z" transform="translate(-117.413 -294.438)" fill="#fff"/>
    <path id="Path_404" data-name="Path 404" d="M169.925,412.8q-.292,0-.291-.225v-.488a.262.262,0,0,1,.291-.3h1.724c.194,0,.291.08.291.238v.476a.262.262,0,0,1-.291.3Z" transform="translate(-121.292 -294.438)" fill="#fff"/>
    <path id="Path_405" data-name="Path 405" d="M175.35,412.8q-.292,0-.291-.225v-.488a.262.262,0,0,1,.291-.3h1.724c.194,0,.291.08.291.238v.476a.262.262,0,0,1-.291.3Z" transform="translate(-125.171 -294.438)" fill="#fff"/>
    <path id="Path_406" data-name="Path 406" d="M180.775,412.8q-.292,0-.291-.225v-.488a.262.262,0,0,1,.291-.3H182.5c.194,0,.291.08.291.238v.476a.262.262,0,0,1-.291.3Z" transform="translate(-129.05 -294.438)" fill="#fff"/>
    <path id="Path_407" data-name="Path 407" d="M186.2,412.8q-.292,0-.291-.225v-.488a.262.262,0,0,1,.291-.3h1.724c.194,0,.291.08.291.238v.476a.262.262,0,0,1-.291.3Z" transform="translate(-132.929 -294.438)" fill="#fff"/>
    <path id="Path_408" data-name="Path 408" d="M191.624,412.8q-.292,0-.291-.225v-.488a.262.262,0,0,1,.291-.3h1.724c.194,0,.291.08.291.238v.476a.262.262,0,0,1-.291.3Z" transform="translate(-136.808 -294.438)" fill="#fff"/>
    <path id="Path_409" data-name="Path 409" d="M197.048,412.8q-.292,0-.291-.225v-.488a.262.262,0,0,1,.291-.3h1.724c.194,0,.291.08.291.238v.476a.262.262,0,0,1-.291.3Z" transform="translate(-140.686 -294.438)" fill="#fff"/>
    <path id="Path_410" data-name="Path 410" d="M202.473,412.8q-.292,0-.291-.225v-.488a.262.262,0,0,1,.291-.3H204.2c.194,0,.291.08.291.238v.476a.262.262,0,0,1-.291.3Z" transform="translate(-144.565 -294.438)" fill="#fff"/>
    <path id="Path_411" data-name="Path 411" d="M207.9,412.8q-.292,0-.291-.225v-.488a.262.262,0,0,1,.291-.3h1.724c.194,0,.291.08.291.238v.476a.262.262,0,0,1-.291.3Z" transform="translate(-148.444 -294.438)" fill="#fff"/>
    <path id="Path_412" data-name="Path 412" d="M213.323,412.8q-.292,0-.291-.225v-.488a.262.262,0,0,1,.291-.3h1.724c.194,0,.291.08.291.238v.476a.262.262,0,0,1-.291.3Z" transform="translate(-152.323 -294.438)" fill="#fff"/>
    <path id="Path_413" data-name="Path 413" d="M218.746,412.8q-.292,0-.291-.225v-.488a.262.262,0,0,1,.291-.3h1.724c.194,0,.292.08.292.238v.476a.262.262,0,0,1-.292.3Z" transform="translate(-156.201 -294.438)" fill="#fff"/>
    <path id="Path_414" data-name="Path 414" d="M224.171,412.8q-.292,0-.291-.225v-.488a.262.262,0,0,1,.291-.3h1.724c.194,0,.291.08.291.238v.476a.262.262,0,0,1-.291.3Z" transform="translate(-160.08 -294.438)" fill="#fff"/>
    <path id="Path_415" data-name="Path 415" d="M229.6,412.8q-.292,0-.291-.225v-.488a.262.262,0,0,1,.291-.3h1.724c.194,0,.291.08.291.238v.476a.262.262,0,0,1-.291.3Z" transform="translate(-163.959 -294.438)" fill="#fff"/>
    <path id="Path_416" data-name="Path 416" d="M235.021,412.8q-.292,0-.291-.225v-.488a.262.262,0,0,1,.291-.3h1.724c.194,0,.291.08.291.238v.476a.262.262,0,0,1-.291.3Z" transform="translate(-167.838 -294.438)" fill="#fff"/>
    <path id="Path_417" data-name="Path 417" d="M240.446,412.8q-.292,0-.291-.225v-.488a.262.262,0,0,1,.291-.3h1.724c.194,0,.291.08.291.238v.476a.262.262,0,0,1-.291.3Z" transform="translate(-171.717 -294.438)" fill="#fff"/>
    <path id="Path_418" data-name="Path 418" d="M245.87,412.8q-.292,0-.291-.225v-.488a.262.262,0,0,1,.291-.3h1.724c.194,0,.291.08.291.238v.476a.262.262,0,0,1-.291.3Z" transform="translate(-175.595 -294.438)" fill="#fff"/>
    <path id="Path_419" data-name="Path 419" d="M251.294,412.8q-.292,0-.291-.225v-.488a.262.262,0,0,1,.291-.3h1.724c.194,0,.291.08.291.238v.476a.262.262,0,0,1-.291.3Z" transform="translate(-179.473 -294.438)" fill="#fff"/>
    <path id="Path_420" data-name="Path 420" d="M256.719,403.264q-.292,0-.291-.225v-.488a.262.262,0,0,1,.291-.3h1.09a.662.662,0,0,0,.615-.26,1.355,1.355,0,0,0,.158-.706v-2.836H259.6v2.3a2.389,2.389,0,0,0,.07.591,1.179,1.179,0,0,0,.241.477,1.139,1.139,0,0,0,.45.318,1.8,1.8,0,0,0,.684.114h.279c.194,0,.291.076.291.225v.488a.262.262,0,0,1-.291.3H261a1.982,1.982,0,0,1-.975-.225,1.192,1.192,0,0,1-.559-.751,2.1,2.1,0,0,1-.308.507,1.194,1.194,0,0,1-.366.294,1.466,1.466,0,0,1-.427.138,2.994,2.994,0,0,1-.482.037Zm.976,2.04a.584.584,0,1,1,.171.412.561.561,0,0,1-.171-.412m1.685,0a.584.584,0,1,1,.171.412.561.561,0,0,1-.171-.412" transform="translate(-183.352 -284.9)" fill="#fff"/>
    <path id="Path_421" data-name="Path 421" d="M272.193,395.73q-.291,0-.291-.225v-.488a.262.262,0,0,1,.291-.3h4.195a2.4,2.4,0,0,1-.3-.655,7.244,7.244,0,0,1-.228-1.151,1.873,1.873,0,0,0-.45-1.145,1.3,1.3,0,0,0-.932-.331,2.987,2.987,0,0,0-.614.082,4.057,4.057,0,0,0-.7.222l-.253-.989c.1-.034.226-.072.374-.114s.3-.08.469-.114.336-.063.513-.089a3.592,3.592,0,0,1,.507-.038,2.058,2.058,0,0,1,.976.21,1.942,1.942,0,0,1,.64.534,2.159,2.159,0,0,1,.361.724,3.756,3.756,0,0,1,.139.781,6.607,6.607,0,0,0,.12.8,2.453,2.453,0,0,0,.235.661,1.23,1.23,0,0,0,.4.445,1.1,1.1,0,0,0,.627.165h.152c.194,0,.292.076.292.225v.488a.262.262,0,0,1-.292.3h-.241a2.307,2.307,0,0,1-.932-.175,1.786,1.786,0,0,1-.7-.573,1.639,1.639,0,0,1-.525.61,1.025,1.025,0,0,1-.5.137Zm1.952-7.236a.585.585,0,1,1,.171.412.561.561,0,0,1-.171-.412" transform="translate(-194.416 -277.366)" fill="#fff"/>
    <path id="Path_422" data-name="Path 422" d="M293.4,392.549q-.292,0-.291-.225v-.488a.262.262,0,0,1,.291-.3h1.09a.661.661,0,0,0,.615-.26,1.346,1.346,0,0,0,.158-.7v-7.108h1.014v6.574a2.381,2.381,0,0,0,.07.59,1.177,1.177,0,0,0,.241.476,1.137,1.137,0,0,0,.45.317,1.8,1.8,0,0,0,.684.114H298c.194,0,.291.076.291.225v.488a.262.262,0,0,1-.291.3h-.317a1.984,1.984,0,0,1-.976-.225,1.192,1.192,0,0,1-.559-.751,2.114,2.114,0,0,1-.308.507,1.194,1.194,0,0,1-.366.294,1.472,1.472,0,0,1-.427.138,2.991,2.991,0,0,1-.482.037Z" transform="translate(-209.582 -274.185)" fill="#fff"/>
    <path id="Path_423" data-name="Path 423" d="M308.877,392.549q-.292,0-.291-.225v-.488a.262.262,0,0,1,.291-.3h1.635v-8.072h1.014v9.086Z" transform="translate(-220.646 -274.185)" fill="#fff"/>
    <path id="Path_424" data-name="Path 424" d="M337.5,395.375a4.383,4.383,0,0,1-1.7-.288,2.92,2.92,0,0,1-1.083-.754,2.71,2.71,0,0,1-.57-1.036,4.041,4.041,0,0,1-.165-1.128,4.307,4.307,0,0,1,.158-1.147,3.5,3.5,0,0,1,.488-1.058q.228.14.437.241t.425.228a2.857,2.857,0,0,0-.361.855,3.777,3.777,0,0,0-.108.881,2.465,2.465,0,0,0,.114.71,1.92,1.92,0,0,0,.4.71,2.2,2.2,0,0,0,.779.551,3.076,3.076,0,0,0,1.255.222,3.236,3.236,0,0,0,.95-.139,2.346,2.346,0,0,0,.811-.431,2.125,2.125,0,0,0,.57-.748,2.539,2.539,0,0,0,.215-1.091v-8.487h.989v8.427a3.761,3.761,0,0,1-.26,1.426,3.127,3.127,0,0,1-.735,1.1,3.341,3.341,0,0,1-1.141.71,4.078,4.078,0,0,1-1.464.254" transform="translate(-238.801 -274.185)" fill="#fff"/>
    <path id="Path_425" data-name="Path 425" d="M371.609,401.011c.194,0,.292.076.292.225v.488a.262.262,0,0,1-.292.3h-1.394a3.538,3.538,0,0,1-.253,1.343,2.413,2.413,0,0,1-.666.913,2.623,2.623,0,0,1-1.007.513,4.865,4.865,0,0,1-1.28.158q-.266,0-.545-.013a4.559,4.559,0,0,1-.57-.063q.025-.266.044-.494c.013-.152.028-.308.044-.469.195.017.384.031.57.044s.363.019.532.019a4.261,4.261,0,0,0,.818-.076,1.667,1.667,0,0,0,.677-.292,1.522,1.522,0,0,0,.469-.6,2.478,2.478,0,0,0,.19-.988h-1.179a3.356,3.356,0,0,1-1.273-.215,2.4,2.4,0,0,1-.849-.558,2.081,2.081,0,0,1-.469-.779,2.774,2.774,0,0,1-.146-.88,3.229,3.229,0,0,1,.19-1.109,2.855,2.855,0,0,1,.532-.919,2.523,2.523,0,0,1,.818-.621,2.351,2.351,0,0,1,1.032-.228,2.539,2.539,0,0,1,.976.178,2.066,2.066,0,0,1,.729.5,2.157,2.157,0,0,1,.456.769,2.951,2.951,0,0,1,.159.985v1.868Zm-2.382,0v-1.463a2.179,2.179,0,0,0-.38-1.367,1.231,1.231,0,0,0-1.026-.49,1.487,1.487,0,0,0-.57.114,1.388,1.388,0,0,0-.488.337,1.726,1.726,0,0,0-.336.528,1.775,1.775,0,0,0-.127.687,1.89,1.89,0,0,0,.139.763,1.353,1.353,0,0,0,.38.515,1.526,1.526,0,0,0,.545.286,2.293,2.293,0,0,0,.646.089Z" transform="translate(-261.215 -283.661)" fill="#fff"/>
    <path id="Path_426" data-name="Path 426" d="M386.025,412.8q-.292,0-.291-.225v-.488a.262.262,0,0,1,.291-.3h1.724c.194,0,.291.08.291.238v.476a.262.262,0,0,1-.291.3Z" transform="translate(-275.809 -294.438)" fill="#fff"/>
    <path id="Path_427" data-name="Path 427" d="M391.45,412.8q-.292,0-.291-.225v-.488a.262.262,0,0,1,.291-.3h1.724c.194,0,.291.08.291.238v.476a.262.262,0,0,1-.291.3Z" transform="translate(-279.688 -294.438)" fill="#fff"/>
    <path id="Path_428" data-name="Path 428" d="M396.874,412.8q-.292,0-.291-.225v-.488a.262.262,0,0,1,.291-.3H398.6c.194,0,.291.08.291.238v.476a.262.262,0,0,1-.291.3Z" transform="translate(-283.566 -294.438)" fill="#fff"/>
    <path id="Path_429" data-name="Path 429" d="M402.3,412.8q-.292,0-.291-.225v-.488a.262.262,0,0,1,.291-.3h1.724c.194,0,.291.08.291.238v.476a.262.262,0,0,1-.291.3Z" transform="translate(-287.445 -294.438)" fill="#fff"/>
    <path id="Path_430" data-name="Path 430" d="M407.723,412.8q-.292,0-.291-.225v-.488a.262.262,0,0,1,.291-.3h1.724c.194,0,.291.08.291.238v.476a.262.262,0,0,1-.291.3Z" transform="translate(-291.324 -294.438)" fill="#fff"/>
    <path id="Path_431" data-name="Path 431" d="M413.148,412.8q-.292,0-.291-.225v-.488a.262.262,0,0,1,.291-.3h1.724c.194,0,.291.08.291.238v.476a.262.262,0,0,1-.291.3Z" transform="translate(-295.203 -294.438)" fill="#fff"/>
    <path id="Path_432" data-name="Path 432" d="M418.573,412.8q-.292,0-.291-.225v-.488a.262.262,0,0,1,.291-.3H420.3c.194,0,.291.08.291.238v.476a.262.262,0,0,1-.291.3Z" transform="translate(-299.082 -294.438)" fill="#fff"/>
    <path id="Path_433" data-name="Path 433" d="M424,412.8q-.292,0-.291-.225v-.488a.262.262,0,0,1,.291-.3h1.724c.194,0,.291.08.291.238v.476a.262.262,0,0,1-.291.3Z" transform="translate(-302.96 -294.438)" fill="#fff"/>
    <path id="Path_434" data-name="Path 434" d="M429.422,412.8q-.292,0-.291-.225v-.488a.262.262,0,0,1,.291-.3h1.724c.194,0,.291.08.291.238v.476a.262.262,0,0,1-.291.3Z" transform="translate(-306.839 -294.438)" fill="#fff"/>
    <path id="Path_435" data-name="Path 435" d="M434.846,412.8q-.292,0-.291-.225v-.488a.262.262,0,0,1,.291-.3h1.724c.194,0,.291.08.291.238v.476a.262.262,0,0,1-.291.3Z" transform="translate(-310.717 -294.438)" fill="#fff"/>
    <path id="Path_436" data-name="Path 436" d="M440.271,412.8q-.292,0-.291-.225v-.488a.262.262,0,0,1,.291-.3h1.724c.194,0,.291.08.291.238v.476a.262.262,0,0,1-.291.3Z" transform="translate(-314.596 -294.438)" fill="#fff"/>
    <path id="Path_437" data-name="Path 437" d="M445.7,412.8q-.292,0-.291-.225v-.488a.262.262,0,0,1,.291-.3h1.724c.194,0,.291.08.291.238v.476a.262.262,0,0,1-.291.3Z" transform="translate(-318.475 -294.438)" fill="#fff"/>
    <path id="Path_438" data-name="Path 438" d="M451.121,412.8q-.292,0-.291-.225v-.488a.262.262,0,0,1,.291-.3h1.724c.194,0,.291.08.291.238v.476a.262.262,0,0,1-.291.3Z" transform="translate(-322.354 -294.438)" fill="#fff"/>
    <path id="Path_439" data-name="Path 439" d="M456.545,412.8q-.292,0-.291-.225v-.488a.262.262,0,0,1,.291-.3h1.724c.194,0,.291.08.291.238v.476a.262.262,0,0,1-.291.3Z" transform="translate(-326.233 -294.438)" fill="#fff"/>
    <path id="Path_440" data-name="Path 440" d="M461.97,412.8q-.292,0-.291-.225v-.488a.262.262,0,0,1,.291-.3h1.724c.194,0,.291.08.291.238v.476a.262.262,0,0,1-.291.3Z" transform="translate(-330.112 -294.438)" fill="#fff"/>
    <path id="Path_441" data-name="Path 441" d="M467.394,395.73q-.291,0-.291-.225v-.488a.262.262,0,0,1,.291-.3h1.09a.661.661,0,0,0,.615-.26,1.356,1.356,0,0,0,.158-.706v-2.835h1.013v2.3a2.392,2.392,0,0,0,.07.591,1.179,1.179,0,0,0,.241.476,1.134,1.134,0,0,0,.45.318,1.8,1.8,0,0,0,.685.114h.279c.194,0,.292.076.292.225v.488a.262.262,0,0,1-.292.3h-.317a1.983,1.983,0,0,1-.976-.225,1.2,1.2,0,0,1-.56-.751,2.084,2.084,0,0,1-.308.507,1.187,1.187,0,0,1-.366.294,1.464,1.464,0,0,1-.427.138,2.991,2.991,0,0,1-.482.037Zm1.787-7.236a.584.584,0,1,1,.171.412.561.561,0,0,1-.171-.412" transform="translate(-333.99 -277.366)" fill="#fff"/>
    <path id="Path_442" data-name="Path 442" d="M482.869,392.549q-.292,0-.291-.225v-.488a.262.262,0,0,1,.291-.3H484.5v-8.072h1.014v9.086Z" transform="translate(-345.055 -274.185)" fill="#fff"/>
    <rect id="Rectangle_350" data-name="Rectangle 350" width="0.976" height="9.086" transform="translate(142.477 109.278)" fill="#fff"/>
    <path id="Path_443" data-name="Path 443" d="M3.041,453.266H0v-1.1H7.337v1.1H4.3v7.768H3.041Z" transform="translate(0 -323.308)" fill="#fff"/>
    <path id="Path_444" data-name="Path 444" d="M38.221,452.164v8.87H36.954v-3.953H31.86v3.953H30.592v-8.87H31.86v3.814h5.094v-3.814Z" transform="translate(-21.874 -323.308)" fill="#fff"/>
    <path id="Path_445" data-name="Path 445" d="M73.136,459.932v1.1H66.7v-8.87h6.26v1.1H67.966v2.725h4.448v1.077H67.966v2.864Z" transform="translate(-47.691 -323.308)" fill="#fff"/>
    <path id="Path_446" data-name="Path 446" d="M108.453,452.164h1.267v7.768h4.8v1.1h-6.07Z" transform="translate(-77.547 -323.308)" fill="#fff"/>
    <path id="Path_447" data-name="Path 447" d="M134.059,460.292a4.355,4.355,0,0,1-1.692-1.628,4.683,4.683,0,0,1,0-4.638,4.353,4.353,0,0,1,1.692-1.628,5.238,5.238,0,0,1,4.828,0,4.323,4.323,0,0,1,1.685,1.622,4.748,4.748,0,0,1,0,4.651,4.324,4.324,0,0,1-1.685,1.622,5.238,5.238,0,0,1-4.828,0m4.175-.982a3.252,3.252,0,0,0,1.229-1.223,3.6,3.6,0,0,0,0-3.485,3.256,3.256,0,0,0-1.229-1.223,3.486,3.486,0,0,0-1.755-.443,3.555,3.555,0,0,0-1.768.443,3.231,3.231,0,0,0-1.242,1.223,3.6,3.6,0,0,0,0,3.485,3.227,3.227,0,0,0,1.242,1.223,3.552,3.552,0,0,0,1.768.444,3.483,3.483,0,0,0,1.755-.444" transform="translate(-94.207 -323.054)" fill="#fff"/>
    <path id="Path_448" data-name="Path 448" d="M171.412,460.292a4.355,4.355,0,0,1-1.692-1.628,4.683,4.683,0,0,1,0-4.638,4.353,4.353,0,0,1,1.692-1.628,5.238,5.238,0,0,1,4.828,0,4.323,4.323,0,0,1,1.685,1.622,4.748,4.748,0,0,1,0,4.651,4.324,4.324,0,0,1-1.685,1.622,5.238,5.238,0,0,1-4.828,0m4.175-.982a3.252,3.252,0,0,0,1.229-1.223,3.6,3.6,0,0,0,0-3.485,3.256,3.256,0,0,0-1.229-1.223,3.486,3.486,0,0,0-1.755-.443,3.555,3.555,0,0,0-1.768.443,3.231,3.231,0,0,0-1.242,1.223,3.6,3.6,0,0,0,0,3.485,3.227,3.227,0,0,0,1.242,1.223,3.552,3.552,0,0,0,1.768.444,3.483,3.483,0,0,0,1.755-.444" transform="translate(-120.915 -323.054)" fill="#fff"/>
    <path id="Path_449" data-name="Path 449" d="M217.215,461.034l-.013-6.463L214,459.957h-.583l-3.206-5.348v6.425h-1.216v-8.87h1.039l3.7,6.235,3.649-6.235h1.039l.013,8.87Z" transform="translate(-149.434 -323.308)" fill="#fff"/>
    <path id="Path_450" data-name="Path 450" d="M261.967,453.266h-3.041v-1.1h7.337v1.1h-3.041v7.768h-1.254Z" transform="translate(-185.138 -323.308)" fill="#fff"/>
    <path id="Path_451" data-name="Path 451" d="M290.288,458.817h-4.714l-.976,2.217h-1.305l4.017-8.87h1.254l4.03,8.87h-1.331Zm-.444-1.014-1.913-4.346-1.914,4.346Z" transform="translate(-202.561 -323.308)" fill="#fff"/>
    <rect id="Rectangle_351" data-name="Rectangle 351" width="1.267" height="8.87" transform="translate(91.351 128.856)" fill="#fff"/>
    <path id="Path_452" data-name="Path 452" d="M334.34,452.164h1.267v7.768h4.8v1.1h-6.07Z" transform="translate(-239.061 -323.308)" fill="#fff"/>
    <path id="Path_453" data-name="Path 453" d="M359.947,460.292a4.355,4.355,0,0,1-1.692-1.628,4.683,4.683,0,0,1,0-4.638,4.353,4.353,0,0,1,1.692-1.628,5.238,5.238,0,0,1,4.828,0,4.323,4.323,0,0,1,1.685,1.622,4.748,4.748,0,0,1,0,4.651,4.324,4.324,0,0,1-1.685,1.622,5.238,5.238,0,0,1-4.828,0m4.175-.982a3.252,3.252,0,0,0,1.229-1.223,3.6,3.6,0,0,0,0-3.485,3.256,3.256,0,0,0-1.229-1.223,3.486,3.486,0,0,0-1.755-.443,3.555,3.555,0,0,0-1.768.443,3.231,3.231,0,0,0-1.242,1.223,3.6,3.6,0,0,0,0,3.485,3.227,3.227,0,0,0,1.242,1.223,3.552,3.552,0,0,0,1.768.444,3.484,3.484,0,0,0,1.755-.444" transform="translate(-255.722 -323.054)" fill="#fff"/>
    <path id="Path_454" data-name="Path 454" d="M403.456,461.033l-1.913-2.724c-.237.017-.423.025-.557.025h-2.193v2.7h-1.267v-8.87h3.46a4.108,4.108,0,0,1,2.711.824,2.793,2.793,0,0,1,.989,2.268,2.969,2.969,0,0,1-.507,1.749,2.864,2.864,0,0,1-1.445,1.052l2.1,2.978Zm-.672-4.3a2.044,2.044,0,0,0,0-2.959,2.86,2.86,0,0,0-1.837-.513h-2.154v3.992h2.154a2.833,2.833,0,0,0,1.837-.519" transform="translate(-284.241 -323.307)" fill="#fff"/>
    <rect id="Rectangle_352" data-name="Rectangle 352" width="1.267" height="8.87" transform="translate(122.498 128.856)" fill="#fff"/>
    <path id="Path_455" data-name="Path 455" d="M451.266,452.164v8.87h-1.039l-5.322-6.615v6.615h-1.267v-8.87h1.039L450,458.778v-6.615Z" transform="translate(-317.211 -323.308)" fill="#fff"/>
    <path id="Path_456" data-name="Path 456" d="M484.077,456.294h1.217v3.46a4.722,4.722,0,0,1-1.533.836,5.73,5.73,0,0,1-1.825.292,4.96,4.96,0,0,1-2.42-.589,4.368,4.368,0,0,1-1.692-1.622,4.718,4.718,0,0,1,0-4.657,4.3,4.3,0,0,1,1.7-1.622,5.065,5.065,0,0,1,2.439-.583,5.152,5.152,0,0,1,1.932.348,3.95,3.95,0,0,1,1.476,1.021l-.785.785a3.572,3.572,0,0,0-2.572-1.026,3.745,3.745,0,0,0-1.819.437,3.2,3.2,0,0,0-1.261,1.217,3.581,3.581,0,0,0,0,3.5,3.25,3.25,0,0,0,1.261,1.223,3.675,3.675,0,0,0,1.806.444,3.759,3.759,0,0,0,2.078-.57Z" transform="translate(-341.216 -323.054)" fill="#fff"/>
    <rect id="Rectangle_353" data-name="Rectangle 353" width="4.706" height="10.055" transform="translate(61.176 64.483)" fill="#fff"/>
    <rect id="Rectangle_354" data-name="Rectangle 354" width="4.706" height="21.973" transform="translate(70.612 59.632)" fill="#fff"/>
    <rect id="Rectangle_355" data-name="Rectangle 355" width="4.706" height="12.041" transform="translate(28.277 69.564)" fill="#fff"/>
    <rect id="Rectangle_356" data-name="Rectangle 356" width="4.706" height="14.929" transform="translate(28.277 39.732)" fill="#fff"/>
    <rect id="Rectangle_357" data-name="Rectangle 357" width="4.706" height="4.975" transform="translate(28.277 59.611)" fill="#fff"/>
    <rect id="Rectangle_358" data-name="Rectangle 358" width="4.706" height="10.055" transform="translate(47.067 64.483)" fill="#fff"/>
    <rect id="Rectangle_359" data-name="Rectangle 359" width="4.706" height="10.055" transform="translate(37.664 64.483)" fill="#fff"/>
    <rect id="Rectangle_360" data-name="Rectangle 360" width="11.934" height="4.975" transform="translate(39.147 69.564)" fill="#fff"/>
    <rect id="Rectangle_361" data-name="Rectangle 361" width="28.219" height="4.962" transform="translate(37.664 59.631)" fill="#fff"/>
    <rect id="Rectangle_362" data-name="Rectangle 362" width="47.026" height="4.962" transform="translate(28.292 49.699)" fill="#fff"/>
    <rect id="Rectangle_363" data-name="Rectangle 363" width="47.026" height="4.962" transform="translate(28.292 39.788)" fill="#fff"/>
    <rect id="Rectangle_364" data-name="Rectangle 364" width="47.04" height="4.962" transform="translate(28.277 79.508)" fill="#fff"/>
    <rect id="Rectangle_365" data-name="Rectangle 365" width="4.706" height="10.055" transform="translate(80.047 64.483)" fill="#fff"/>
    <rect id="Rectangle_366" data-name="Rectangle 366" width="4.706" height="21.973" transform="translate(70.612 59.632)" fill="#fff"/>
    <rect id="Rectangle_367" data-name="Rectangle 367" width="4.706" height="12.041" transform="translate(112.946 69.564)" fill="#fff"/>
    <rect id="Rectangle_368" data-name="Rectangle 368" width="4.706" height="14.929" transform="translate(112.946 39.732)" fill="#fff"/>
    <rect id="Rectangle_369" data-name="Rectangle 369" width="4.706" height="4.975" transform="translate(112.946 59.611)" fill="#fff"/>
    <rect id="Rectangle_370" data-name="Rectangle 370" width="4.706" height="10.055" transform="translate(94.156 64.483)" fill="#fff"/>
    <rect id="Rectangle_371" data-name="Rectangle 371" width="4.706" height="10.055" transform="translate(103.559 64.483)" fill="#fff"/>
    <rect id="Rectangle_372" data-name="Rectangle 372" width="11.273" height="4.975" transform="translate(95.601 69.564)" fill="#fff"/>
    <rect id="Rectangle_373" data-name="Rectangle 373" width="28.219" height="4.962" transform="translate(80.047 59.631)" fill="#fff"/>
    <rect id="Rectangle_374" data-name="Rectangle 374" width="47.026" height="4.962" transform="translate(70.611 49.699)" fill="#fff"/>
    <rect id="Rectangle_375" data-name="Rectangle 375" width="47.026" height="4.962" transform="translate(70.611 39.788)" fill="#fff"/>
    <rect id="Rectangle_376" data-name="Rectangle 376" width="47.04" height="4.962" transform="translate(70.612 79.508)" fill="#fff"/>
    <rect id="Rectangle_377" data-name="Rectangle 377" width="4.706" height="10.055" transform="translate(80.047 9.932)" fill="#fff"/>
    <rect id="Rectangle_378" data-name="Rectangle 378" width="4.706" height="21.973" transform="translate(70.612 2.866)" fill="#fff"/>
    <rect id="Rectangle_379" data-name="Rectangle 379" width="4.706" height="12.041" transform="translate(112.946 2.866)" fill="#fff"/>
    <rect id="Rectangle_380" data-name="Rectangle 380" width="4.706" height="14.929" transform="translate(112.946 29.809)" fill="#fff"/>
    <rect id="Rectangle_381" data-name="Rectangle 381" width="4.706" height="4.975" transform="translate(112.946 19.884)" fill="#fff"/>
    <rect id="Rectangle_382" data-name="Rectangle 382" width="4.706" height="10.055" transform="translate(94.156 9.932)" fill="#fff"/>
    <rect id="Rectangle_383" data-name="Rectangle 383" width="4.706" height="10.055" transform="translate(103.559 9.932)" fill="#fff"/>
    <rect id="Rectangle_384" data-name="Rectangle 384" width="11.273" height="4.975" transform="translate(95.601 9.932)" fill="#fff"/>
    <rect id="Rectangle_385" data-name="Rectangle 385" width="28.219" height="4.962" transform="translate(80.047 19.877)" fill="#fff"/>
    <rect id="Rectangle_386" data-name="Rectangle 386" width="47.026" height="4.962" transform="translate(70.611 29.808)" fill="#fff"/>
    <rect id="Rectangle_387" data-name="Rectangle 387" width="47.026" height="4.962" transform="translate(70.611 39.721)" fill="#fff"/>
    <rect id="Rectangle_388" data-name="Rectangle 388" width="47.04" height="4.962" transform="translate(70.612)" fill="#fff"/>
    <rect id="Rectangle_389" data-name="Rectangle 389" width="4.706" height="10.055" transform="translate(61.201 9.943)" fill="#fff"/>
    <rect id="Rectangle_390" data-name="Rectangle 390" width="4.706" height="21.973" transform="translate(70.636 2.877)" fill="#fff"/>
    <rect id="Rectangle_391" data-name="Rectangle 391" width="4.706" height="12.041" transform="translate(28.302 2.877)" fill="#fff"/>
    <rect id="Rectangle_392" data-name="Rectangle 392" width="4.706" height="14.929" transform="translate(28.302 29.82)" fill="#fff"/>
    <rect id="Rectangle_393" data-name="Rectangle 393" width="4.706" height="4.975" transform="translate(28.302 19.896)" fill="#fff"/>
    <rect id="Rectangle_394" data-name="Rectangle 394" width="4.706" height="10.055" transform="translate(47.091 9.943)" fill="#fff"/>
    <rect id="Rectangle_395" data-name="Rectangle 395" width="4.706" height="10.055" transform="translate(37.688 9.943)" fill="#fff"/>
    <rect id="Rectangle_396" data-name="Rectangle 396" width="10.457" height="4.975" transform="translate(40.017 9.943)" fill="#fff"/>
    <rect id="Rectangle_397" data-name="Rectangle 397" width="28.219" height="4.962" transform="translate(37.688 19.888)" fill="#fff"/>
    <rect id="Rectangle_398" data-name="Rectangle 398" width="47.026" height="4.962" transform="translate(28.316 29.82)" fill="#fff"/>
    <rect id="Rectangle_399" data-name="Rectangle 399" width="47.026" height="4.962" transform="translate(28.316 39.732)" fill="#fff"/>
    <rect id="Rectangle_400" data-name="Rectangle 400" width="47.04" height="4.962" transform="translate(28.302 0.011)" fill="#fff"/>
  </g>
</svg>
