<svg id="Group_274" data-name="Group 274" xmlns="http://www.w3.org/2000/svg" xmlns:xlink="http://www.w3.org/1999/xlink" width="75.392" height="72.084" viewBox="0 0 75.392 72.084">
  <defs>
    <clipPath id="clip-path">
      <rect id="Rectangle_478" data-name="Rectangle 478" width="75.392" height="72.084" fill="none"/>
    </clipPath>
  </defs>
  <g id="Group_273" data-name="Group 273" clip-path="url(#clip-path)">
    <path id="Path_571" data-name="Path 571" d="M5.331,391.47c.1,0,.152.039.152.118v.255a.137.137,0,0,1-.152.157H3.658a1.766,1.766,0,0,1-.668-.113,1.254,1.254,0,0,1-.445-.292,1.089,1.089,0,0,1-.246-.408,1.443,1.443,0,0,1-.076-.46,1.639,1.639,0,0,1,.1-.58,1.547,1.547,0,0,1,.282-.481,1.319,1.319,0,0,1,.428-.325,1.237,1.237,0,0,1,.542-.119,1.315,1.315,0,0,1,.5.093,1.083,1.083,0,0,1,.382.259,1.163,1.163,0,0,1,.242.4,1.49,1.49,0,0,1,.086.515v.977Zm-1.067,0V390.7a1.185,1.185,0,0,0-.189-.715.637.637,0,0,0-.547-.256.729.729,0,0,0-.292.06.776.776,0,0,0-.252.176.871.871,0,0,0-.179.276.928.928,0,0,0-.066.359.988.988,0,0,0,.073.4.707.707,0,0,0,.2.269.8.8,0,0,0,.285.15,1.2,1.2,0,0,0,.338.046Zm-1.451-3.254a.306.306,0,1,1,.089.215.294.294,0,0,1-.089-.215m.881,0a.306.306,0,1,1,.089.215.294.294,0,0,1-.089-.215" transform="translate(-1.892 -330.096)" fill="#777"/>
    <path id="Path_572" data-name="Path 572" d="M21.541,412.318q-.152,0-.152-.118v-.255a.137.137,0,0,1,.152-.157h.9c.1,0,.152.042.152.124v.249a.137.137,0,0,1-.152.157Z" transform="translate(-18.201 -350.414)" fill="#777"/>
    <path id="Path_573" data-name="Path 573" d="M26.966,412.318q-.152,0-.152-.118v-.255a.137.137,0,0,1,.152-.157h.9c.1,0,.152.042.152.124v.249a.137.137,0,0,1-.152.157Z" transform="translate(-22.818 -350.414)" fill="#777"/>
    <path id="Path_574" data-name="Path 574" d="M32.391,412.318q-.152,0-.152-.118v-.255a.137.137,0,0,1,.152-.157h.9c.1,0,.152.042.152.124v.249a.137.137,0,0,1-.152.157Z" transform="translate(-27.434 -350.414)" fill="#777"/>
    <path id="Path_575" data-name="Path 575" d="M37.815,412.318q-.152,0-.152-.118v-.255a.137.137,0,0,1,.152-.157h.9c.1,0,.152.042.152.124v.249a.137.137,0,0,1-.152.157Z" transform="translate(-32.05 -350.414)" fill="#777"/>
    <path id="Path_576" data-name="Path 576" d="M43.239,412.318q-.152,0-.152-.118v-.255a.137.137,0,0,1,.152-.157h.9c.1,0,.152.042.152.124v.249a.137.137,0,0,1-.152.157Z" transform="translate(-36.665 -350.414)" fill="#777"/>
    <path id="Path_577" data-name="Path 577" d="M48.664,412.318q-.152,0-.152-.118v-.255a.137.137,0,0,1,.152-.157h.9c.1,0,.152.042.152.124v.249a.137.137,0,0,1-.152.157Z" transform="translate(-41.282 -350.414)" fill="#777"/>
    <path id="Path_578" data-name="Path 578" d="M54.089,412.318q-.152,0-.152-.118v-.255a.137.137,0,0,1,.152-.157h.9c.1,0,.152.042.152.124v.249a.137.137,0,0,1-.152.157Z" transform="translate(-45.898 -350.414)" fill="#777"/>
    <path id="Path_579" data-name="Path 579" d="M59.514,412.318q-.152,0-.152-.118v-.255a.137.137,0,0,1,.152-.157h.9c.1,0,.152.042.152.124v.249a.137.137,0,0,1-.152.157Z" transform="translate(-50.515 -350.414)" fill="#777"/>
    <path id="Path_580" data-name="Path 580" d="M64.938,412.318q-.152,0-.152-.118v-.255a.137.137,0,0,1,.152-.157h.9c.1,0,.152.042.152.124v.249a.137.137,0,0,1-.152.157Z" transform="translate(-55.13 -350.414)" fill="#777"/>
    <path id="Path_581" data-name="Path 581" d="M70.362,412.318q-.152,0-.152-.118v-.255a.137.137,0,0,1,.152-.157h.9c.1,0,.152.042.152.124v.249a.137.137,0,0,1-.152.157Z" transform="translate(-59.746 -350.414)" fill="#777"/>
    <path id="Path_582" data-name="Path 582" d="M75.787,412.318q-.152,0-.152-.118v-.255a.137.137,0,0,1,.152-.157h.9c.1,0,.152.042.152.124v.249a.137.137,0,0,1-.152.157Z" transform="translate(-64.362 -350.414)" fill="#777"/>
    <path id="Path_583" data-name="Path 583" d="M81.212,412.318q-.152,0-.152-.118v-.255a.137.137,0,0,1,.152-.157h.9c.1,0,.152.042.152.124v.249a.137.137,0,0,1-.152.157Z" transform="translate(-68.979 -350.414)" fill="#777"/>
    <path id="Path_584" data-name="Path 584" d="M86.637,412.318q-.152,0-.152-.118v-.255a.137.137,0,0,1,.152-.157h.9c.1,0,.152.042.152.124v.249a.137.137,0,0,1-.152.157Z" transform="translate(-73.595 -350.414)" fill="#777"/>
    <path id="Path_585" data-name="Path 585" d="M92.061,388.216q-.152,0-.152-.118v-.255a.137.137,0,0,1,.152-.157h1.007v-4.222h.53v3.181a3.21,3.21,0,0,1,.394-.61,2.01,2.01,0,0,1,.431-.392,1.577,1.577,0,0,1,.454-.208,1.772,1.772,0,0,1,.464-.063,1.551,1.551,0,0,1,.653.129,1.378,1.378,0,0,1,.474.35,1.467,1.467,0,0,1,.288.526,2.166,2.166,0,0,1,.1.655v1.183Zm4.248-1.1a1.813,1.813,0,0,0-.079-.579.955.955,0,0,0-.219-.373.793.793,0,0,0-.335-.2,1.436,1.436,0,0,0-.421-.06,1.3,1.3,0,0,0-.547.126,1.74,1.74,0,0,0-.507.359,2.178,2.178,0,0,0-.61,1.3h2.717Z" transform="translate(-78.211 -326.312)" fill="#777"/>
    <path id="Path_586" data-name="Path 586" d="M131.751,383.463h.53v4.222h.517c.1,0,.152.039.152.118v.255a.137.137,0,0,1-.152.157h-1.047Z" transform="translate(-112.115 -326.311)" fill="#777"/>
    <path id="Path_587" data-name="Path 587" d="M137.238,412.318q-.152,0-.152-.118v-.255a.137.137,0,0,1,.152-.157h.9c.1,0,.152.042.152.124v.249a.137.137,0,0,1-.152.157Z" transform="translate(-116.654 -350.414)" fill="#777"/>
    <path id="Path_588" data-name="Path 588" d="M142.663,412.318q-.152,0-.152-.118v-.255a.137.137,0,0,1,.152-.157h.9c.1,0,.152.042.152.124v.249a.137.137,0,0,1-.152.157Z" transform="translate(-121.271 -350.414)" fill="#777"/>
    <path id="Path_589" data-name="Path 589" d="M148.088,412.318q-.152,0-.152-.118v-.255a.137.137,0,0,1,.152-.157h.9c.1,0,.152.042.152.124v.249a.137.137,0,0,1-.152.157Z" transform="translate(-125.887 -350.414)" fill="#777"/>
    <path id="Path_590" data-name="Path 590" d="M153.513,412.318q-.152,0-.152-.118v-.255a.137.137,0,0,1,.152-.157h.9c.1,0,.152.042.152.124v.249a.137.137,0,0,1-.152.157Z" transform="translate(-130.504 -350.414)" fill="#777"/>
    <path id="Path_591" data-name="Path 591" d="M158.937,412.318q-.152,0-.152-.118v-.255a.137.137,0,0,1,.152-.157h.9c.1,0,.152.042.152.124v.249a.137.137,0,0,1-.152.157Z" transform="translate(-135.119 -350.414)" fill="#777"/>
    <path id="Path_592" data-name="Path 592" d="M164.361,412.318q-.152,0-.152-.118v-.255a.137.137,0,0,1,.152-.157h.9c.1,0,.152.042.152.124v.249a.137.137,0,0,1-.152.157Z" transform="translate(-139.735 -350.414)" fill="#777"/>
    <path id="Path_593" data-name="Path 593" d="M169.786,412.318q-.152,0-.152-.118v-.255a.137.137,0,0,1,.152-.157h.9c.1,0,.152.042.152.124v.249a.137.137,0,0,1-.152.157Z" transform="translate(-144.351 -350.414)" fill="#777"/>
    <path id="Path_594" data-name="Path 594" d="M175.211,412.318q-.152,0-.152-.118v-.255a.137.137,0,0,1,.152-.157h.9c.1,0,.152.042.152.124v.249a.137.137,0,0,1-.152.157Z" transform="translate(-148.968 -350.414)" fill="#777"/>
    <path id="Path_595" data-name="Path 595" d="M180.636,412.318q-.152,0-.152-.118v-.255a.137.137,0,0,1,.152-.157h.9c.1,0,.152.042.152.124v.249a.137.137,0,0,1-.152.157Z" transform="translate(-153.584 -350.414)" fill="#777"/>
    <path id="Path_596" data-name="Path 596" d="M186.061,412.318q-.152,0-.152-.118v-.255a.137.137,0,0,1,.152-.157h.9c.1,0,.152.042.152.124v.249a.137.137,0,0,1-.152.157Z" transform="translate(-158.201 -350.414)" fill="#777"/>
    <path id="Path_597" data-name="Path 597" d="M191.485,412.318q-.152,0-.152-.118v-.255a.137.137,0,0,1,.152-.157h.9c.1,0,.152.042.152.124v.249a.137.137,0,0,1-.152.157Z" transform="translate(-162.816 -350.414)" fill="#777"/>
    <path id="Path_598" data-name="Path 598" d="M196.909,412.318q-.152,0-.152-.118v-.255a.137.137,0,0,1,.152-.157h.9c.1,0,.152.042.152.124v.249a.137.137,0,0,1-.152.157Z" transform="translate(-167.432 -350.414)" fill="#777"/>
    <path id="Path_599" data-name="Path 599" d="M202.334,412.318q-.152,0-.152-.118v-.255a.137.137,0,0,1,.152-.157h.9c.1,0,.152.042.152.124v.249a.137.137,0,0,1-.152.157Z" transform="translate(-172.048 -350.414)" fill="#777"/>
    <path id="Path_600" data-name="Path 600" d="M207.759,412.318q-.152,0-.152-.118v-.255a.137.137,0,0,1,.152-.157h.9c.1,0,.152.042.152.124v.249a.137.137,0,0,1-.152.157Z" transform="translate(-176.665 -350.414)" fill="#777"/>
    <path id="Path_601" data-name="Path 601" d="M213.184,412.318q-.152,0-.152-.118v-.255a.137.137,0,0,1,.152-.157h.9c.1,0,.152.042.152.124v.249a.137.137,0,0,1-.152.157Z" transform="translate(-181.281 -350.414)" fill="#777"/>
    <path id="Path_602" data-name="Path 602" d="M218.607,412.318q-.152,0-.152-.118v-.255a.137.137,0,0,1,.152-.157h.9c.1,0,.152.042.152.124v.249a.137.137,0,0,1-.152.157Z" transform="translate(-185.896 -350.414)" fill="#777"/>
    <path id="Path_603" data-name="Path 603" d="M224.032,412.318q-.152,0-.152-.118v-.255a.137.137,0,0,1,.152-.157h.9c.1,0,.152.042.152.124v.249a.137.137,0,0,1-.152.157Z" transform="translate(-190.512 -350.414)" fill="#777"/>
    <path id="Path_604" data-name="Path 604" d="M229.457,412.318q-.152,0-.152-.118v-.255a.137.137,0,0,1,.152-.157h.9c.1,0,.152.042.152.124v.249a.137.137,0,0,1-.152.157Z" transform="translate(-195.129 -350.414)" fill="#777"/>
    <path id="Path_605" data-name="Path 605" d="M234.882,412.318q-.152,0-.152-.118v-.255a.137.137,0,0,1,.152-.157h.9c.1,0,.152.042.152.124v.249a.137.137,0,0,1-.152.157Z" transform="translate(-199.745 -350.414)" fill="#777"/>
    <path id="Path_606" data-name="Path 606" d="M240.307,412.318q-.152,0-.152-.118v-.255a.137.137,0,0,1,.152-.157h.9c.1,0,.152.042.152.124v.249a.137.137,0,0,1-.152.157Z" transform="translate(-204.362 -350.414)" fill="#777"/>
    <path id="Path_607" data-name="Path 607" d="M245.731,412.318q-.152,0-.152-.118v-.255a.137.137,0,0,1,.152-.157h.9c.1,0,.152.042.152.124v.249a.137.137,0,0,1-.152.157Z" transform="translate(-208.977 -350.414)" fill="#777"/>
    <path id="Path_608" data-name="Path 608" d="M251.155,412.318q-.152,0-.152-.118v-.255a.137.137,0,0,1,.152-.157h.9c.1,0,.152.042.152.124v.249a.137.137,0,0,1-.152.157Z" transform="translate(-213.593 -350.414)" fill="#777"/>
    <path id="Path_609" data-name="Path 609" d="M256.58,400.966q-.152,0-.152-.118v-.255a.137.137,0,0,1,.152-.157h.57a.346.346,0,0,0,.322-.136.709.709,0,0,0,.083-.369v-1.483h.53v1.2a1.249,1.249,0,0,0,.036.309.617.617,0,0,0,.126.249.6.6,0,0,0,.235.166.942.942,0,0,0,.358.06h.146c.1,0,.152.039.152.118v.255a.137.137,0,0,1-.152.157h-.166a1.036,1.036,0,0,1-.51-.118.623.623,0,0,1-.293-.393,1.1,1.1,0,0,1-.161.265.624.624,0,0,1-.191.154.765.765,0,0,1-.223.072,1.561,1.561,0,0,1-.252.02Zm.51,1.067a.306.306,0,1,1,.09.215.293.293,0,0,1-.09-.215m.881,0a.306.306,0,1,1,.09.215.293.293,0,0,1-.09-.215" transform="translate(-218.209 -339.062)" fill="#777"/>
    <path id="Path_610" data-name="Path 610" d="M272.054,392q-.152,0-.152-.118v-.255a.137.137,0,0,1,.152-.157h2.194a1.258,1.258,0,0,1-.159-.343,3.787,3.787,0,0,1-.119-.6.98.98,0,0,0-.235-.6.678.678,0,0,0-.487-.173,1.563,1.563,0,0,0-.321.043,2.126,2.126,0,0,0-.368.116l-.132-.517q.079-.026.2-.06t.245-.06q.129-.026.268-.046a1.886,1.886,0,0,1,.265-.02,1.076,1.076,0,0,1,.51.11,1.016,1.016,0,0,1,.335.279,1.129,1.129,0,0,1,.189.379,1.96,1.96,0,0,1,.073.409,3.458,3.458,0,0,0,.063.419,1.284,1.284,0,0,0,.123.345.643.643,0,0,0,.209.233.577.577,0,0,0,.328.086h.079c.1,0,.153.039.153.118v.255a.137.137,0,0,1-.153.157h-.126a1.206,1.206,0,0,1-.487-.091.934.934,0,0,1-.368-.3.857.857,0,0,1-.275.319.536.536,0,0,1-.262.072Zm1.021-3.784a.306.306,0,1,1,.09.215.293.293,0,0,1-.09-.215" transform="translate(-231.377 -330.096)" fill="#777"/>
    <path id="Path_611" data-name="Path 611" d="M293.264,388.215q-.152,0-.152-.118v-.255a.137.137,0,0,1,.152-.157h.57a.346.346,0,0,0,.321-.136.7.7,0,0,0,.083-.368v-3.717h.53V386.9a1.245,1.245,0,0,0,.036.309.616.616,0,0,0,.126.249.6.6,0,0,0,.235.166.942.942,0,0,0,.358.06h.146c.1,0,.152.039.152.118v.255a.137.137,0,0,1-.152.157H295.5a1.037,1.037,0,0,1-.51-.118.623.623,0,0,1-.292-.393,1.1,1.1,0,0,1-.161.265.622.622,0,0,1-.191.154.771.771,0,0,1-.223.072,1.565,1.565,0,0,1-.252.02Z" transform="translate(-249.426 -326.311)" fill="#777"/>
    <path id="Path_612" data-name="Path 612" d="M308.738,388.215q-.152,0-.152-.118v-.255a.137.137,0,0,1,.152-.157h.855v-4.222h.53v4.752Z" transform="translate(-262.594 -326.311)" fill="#777"/>
    <path id="Path_613" data-name="Path 613" d="M335.818,389.693a2.292,2.292,0,0,1-.891-.151,1.526,1.526,0,0,1-.567-.394,1.417,1.417,0,0,1-.3-.542,2.114,2.114,0,0,1-.086-.59,2.253,2.253,0,0,1,.083-.6,1.83,1.83,0,0,1,.255-.553q.119.073.229.126t.222.119a1.493,1.493,0,0,0-.189.447,1.973,1.973,0,0,0-.056.461,1.289,1.289,0,0,0,.06.371,1,1,0,0,0,.209.371,1.15,1.15,0,0,0,.407.288,1.609,1.609,0,0,0,.656.116,1.692,1.692,0,0,0,.5-.073,1.228,1.228,0,0,0,.424-.226,1.111,1.111,0,0,0,.3-.391,1.327,1.327,0,0,0,.113-.571v-4.439h.517v4.407a1.968,1.968,0,0,1-.136.746,1.636,1.636,0,0,1-.384.573,1.747,1.747,0,0,1-.6.371,2.134,2.134,0,0,1-.765.133" transform="translate(-284.199 -326.311)" fill="#777"/>
    <path id="Path_614" data-name="Path 614" d="M368.611,398.962c.1,0,.152.039.152.118v.255a.137.137,0,0,1-.152.157h-.729a1.851,1.851,0,0,1-.132.7,1.263,1.263,0,0,1-.348.477,1.372,1.372,0,0,1-.527.268,2.543,2.543,0,0,1-.669.083c-.093,0-.188,0-.285-.007a2.378,2.378,0,0,1-.3-.033q.013-.139.023-.259t.023-.245l.3.023q.146.01.278.01a2.229,2.229,0,0,0,.428-.04.872.872,0,0,0,.354-.152.8.8,0,0,0,.245-.312,1.3,1.3,0,0,0,.1-.517h-.616a1.755,1.755,0,0,1-.666-.113,1.253,1.253,0,0,1-.444-.292,1.087,1.087,0,0,1-.245-.408,1.45,1.45,0,0,1-.076-.46,1.688,1.688,0,0,1,.1-.58,1.493,1.493,0,0,1,.278-.48,1.32,1.32,0,0,1,.428-.325,1.23,1.23,0,0,1,.54-.119,1.327,1.327,0,0,1,.51.093,1.081,1.081,0,0,1,.381.259,1.129,1.129,0,0,1,.238.4,1.544,1.544,0,0,1,.083.515v.977Zm-1.246,0V398.2a1.14,1.14,0,0,0-.2-.715.644.644,0,0,0-.537-.256.778.778,0,0,0-.3.06.726.726,0,0,0-.255.176.9.9,0,0,0-.176.276.929.929,0,0,0-.066.359.988.988,0,0,0,.073.4.708.708,0,0,0,.2.269.8.8,0,0,0,.285.15,1.2,1.2,0,0,0,.338.047Z" transform="translate(-310.875 -337.588)" fill="#777"/>
    <path id="Path_615" data-name="Path 615" d="M385.886,412.318q-.152,0-.152-.118v-.255a.137.137,0,0,1,.152-.157h.9c.1,0,.152.042.152.124v.249a.137.137,0,0,1-.152.157Z" transform="translate(-328.243 -350.414)" fill="#777"/>
    <path id="Path_616" data-name="Path 616" d="M391.311,412.318q-.152,0-.152-.118v-.255a.137.137,0,0,1,.152-.157h.9c.1,0,.152.042.152.124v.249a.137.137,0,0,1-.152.157Z" transform="translate(-332.86 -350.414)" fill="#777"/>
    <path id="Path_617" data-name="Path 617" d="M396.735,412.318q-.152,0-.152-.118v-.255a.137.137,0,0,1,.152-.157h.9c.1,0,.152.042.152.124v.249a.137.137,0,0,1-.152.157Z" transform="translate(-337.475 -350.414)" fill="#777"/>
    <path id="Path_618" data-name="Path 618" d="M402.16,412.318q-.152,0-.152-.118v-.255a.137.137,0,0,1,.152-.157h.9c.1,0,.152.042.152.124v.249a.137.137,0,0,1-.152.157Z" transform="translate(-342.092 -350.414)" fill="#777"/>
    <path id="Path_619" data-name="Path 619" d="M407.584,412.318q-.152,0-.152-.118v-.255a.137.137,0,0,1,.152-.157h.9c.1,0,.152.042.152.124v.249a.137.137,0,0,1-.152.157Z" transform="translate(-346.707 -350.414)" fill="#777"/>
    <path id="Path_620" data-name="Path 620" d="M413.009,412.318q-.152,0-.152-.118v-.255a.137.137,0,0,1,.152-.157h.9c.1,0,.152.042.152.124v.249a.137.137,0,0,1-.152.157Z" transform="translate(-351.324 -350.414)" fill="#777"/>
    <path id="Path_621" data-name="Path 621" d="M418.434,412.318q-.152,0-.152-.118v-.255a.137.137,0,0,1,.152-.157h.9c.1,0,.152.042.152.124v.249a.137.137,0,0,1-.152.157Z" transform="translate(-355.94 -350.414)" fill="#777"/>
    <path id="Path_622" data-name="Path 622" d="M423.858,412.318q-.152,0-.152-.118v-.255a.137.137,0,0,1,.152-.157h.9c.1,0,.152.042.152.124v.249a.137.137,0,0,1-.152.157Z" transform="translate(-360.556 -350.414)" fill="#777"/>
    <path id="Path_623" data-name="Path 623" d="M429.283,412.318q-.153,0-.152-.118v-.255a.137.137,0,0,1,.152-.157h.9c.1,0,.152.042.152.124v.249a.137.137,0,0,1-.152.157Z" transform="translate(-365.172 -350.414)" fill="#777"/>
    <path id="Path_624" data-name="Path 624" d="M434.707,412.318q-.153,0-.152-.118v-.255a.137.137,0,0,1,.152-.157h.9c.1,0,.152.042.152.124v.249a.137.137,0,0,1-.152.157Z" transform="translate(-369.788 -350.414)" fill="#777"/>
    <path id="Path_625" data-name="Path 625" d="M440.132,412.318q-.152,0-.152-.118v-.255a.137.137,0,0,1,.152-.157h.9c.1,0,.152.042.152.124v.249a.137.137,0,0,1-.152.157Z" transform="translate(-374.404 -350.414)" fill="#777"/>
    <path id="Path_626" data-name="Path 626" d="M445.557,412.318q-.152,0-.152-.118v-.255a.137.137,0,0,1,.152-.157h.9c.1,0,.152.042.152.124v.249a.137.137,0,0,1-.152.157Z" transform="translate(-379.021 -350.414)" fill="#777"/>
    <path id="Path_627" data-name="Path 627" d="M450.982,412.318q-.153,0-.152-.118v-.255a.137.137,0,0,1,.152-.157h.9c.1,0,.152.042.152.124v.249a.137.137,0,0,1-.152.157Z" transform="translate(-383.637 -350.414)" fill="#777"/>
    <path id="Path_628" data-name="Path 628" d="M456.406,412.318c-.1,0-.152-.039-.152-.118v-.255a.137.137,0,0,1,.152-.157h.9c.1,0,.152.042.152.124v.249a.137.137,0,0,1-.152.157Z" transform="translate(-388.253 -350.414)" fill="#777"/>
    <path id="Path_629" data-name="Path 629" d="M461.831,412.318c-.1,0-.152-.039-.152-.118v-.255a.137.137,0,0,1,.152-.157h.9c.1,0,.152.042.152.124v.249a.137.137,0,0,1-.152.157Z" transform="translate(-392.869 -350.414)" fill="#777"/>
    <path id="Path_630" data-name="Path 630" d="M467.255,392q-.152,0-.152-.118v-.255a.137.137,0,0,1,.152-.157h.57a.346.346,0,0,0,.322-.136.709.709,0,0,0,.083-.369v-1.483h.53v1.2a1.251,1.251,0,0,0,.036.309.617.617,0,0,0,.126.249.594.594,0,0,0,.235.166.944.944,0,0,0,.358.06h.146c.1,0,.152.039.152.118v.255a.137.137,0,0,1-.152.157H469.5a1.038,1.038,0,0,1-.51-.118.625.625,0,0,1-.293-.393,1.089,1.089,0,0,1-.161.265.621.621,0,0,1-.191.154.767.767,0,0,1-.223.072,1.564,1.564,0,0,1-.252.02Zm.935-3.784a.305.305,0,1,1,.089.215.293.293,0,0,1-.089-.215" transform="translate(-397.485 -330.096)" fill="#777"/>
    <path id="Path_631" data-name="Path 631" d="M482.73,388.215q-.152,0-.152-.118v-.255a.137.137,0,0,1,.152-.157h.855v-4.222h.53v4.752Z" transform="translate(-410.653 -326.311)" fill="#777"/>
    <rect id="Rectangle_427" data-name="Rectangle 427" width="0.51" height="4.752" transform="translate(74.516 57.152)" fill="#777"/>
    <path id="Path_632" data-name="Path 632" d="M1.59,452.74H0v-.577H3.837v.577H2.247V456.8H1.59Z" transform="translate(0 -384.772)" fill="#777"/>
    <path id="Path_633" data-name="Path 633" d="M34.582,452.164V456.8h-.663v-2.068H31.255V456.8h-.663v-4.639h.663v1.995h2.664v-1.995Z" transform="translate(-26.033 -384.772)" fill="#777"/>
    <path id="Path_634" data-name="Path 634" d="M70.066,456.226v.577H66.7v-4.639h3.274v.577H67.362v1.425h2.326v.563H67.362v1.5Z" transform="translate(-56.758 -384.772)" fill="#777"/>
    <path id="Path_635" data-name="Path 635" d="M108.453,452.164h.663v4.063h2.512v.577h-3.175Z" transform="translate(-92.289 -384.772)" fill="#777"/>
    <path id="Path_636" data-name="Path 636" d="M132.959,456.245a2.277,2.277,0,0,1-.885-.852,2.449,2.449,0,0,1,0-2.425,2.276,2.276,0,0,1,.885-.852,2.74,2.74,0,0,1,2.525,0,2.261,2.261,0,0,1,.881.848,2.483,2.483,0,0,1,0,2.432,2.261,2.261,0,0,1-.881.848,2.74,2.74,0,0,1-2.525,0m2.184-.514a1.7,1.7,0,0,0,.643-.639,1.882,1.882,0,0,0,0-1.823,1.7,1.7,0,0,0-.643-.64,1.823,1.823,0,0,0-.918-.232,1.859,1.859,0,0,0-.925.232,1.69,1.69,0,0,0-.65.64,1.883,1.883,0,0,0,0,1.823,1.688,1.688,0,0,0,.65.639,1.857,1.857,0,0,0,.925.232,1.821,1.821,0,0,0,.918-.232" transform="translate(-112.116 -384.469)" fill="#777"/>
    <path id="Path_637" data-name="Path 637" d="M170.312,456.245a2.277,2.277,0,0,1-.885-.852,2.449,2.449,0,0,1,0-2.425,2.276,2.276,0,0,1,.885-.852,2.74,2.74,0,0,1,2.525,0,2.261,2.261,0,0,1,.881.848,2.483,2.483,0,0,1,0,2.432,2.261,2.261,0,0,1-.881.848,2.74,2.74,0,0,1-2.525,0m2.184-.514a1.7,1.7,0,0,0,.643-.639,1.882,1.882,0,0,0,0-1.823,1.7,1.7,0,0,0-.643-.64,1.823,1.823,0,0,0-.918-.232,1.859,1.859,0,0,0-.925.232,1.69,1.69,0,0,0-.65.64,1.883,1.883,0,0,0,0,1.823,1.687,1.687,0,0,0,.65.639,1.857,1.857,0,0,0,.925.232,1.821,1.821,0,0,0,.918-.232" transform="translate(-143.902 -384.469)" fill="#777"/>
    <path id="Path_638" data-name="Path 638" d="M213.293,456.8l-.007-3.38-1.677,2.817h-.3l-1.677-2.8v3.36h-.636v-4.639h.543l1.935,3.261,1.909-3.261h.544l.007,4.639Z" transform="translate(-177.843 -384.772)" fill="#777"/>
    <path id="Path_639" data-name="Path 639" d="M260.516,452.74h-1.591v-.577h3.837v.577h-1.591V456.8h-.656Z" transform="translate(-220.335 -384.772)" fill="#777"/>
    <path id="Path_640" data-name="Path 640" d="M286.951,455.644h-2.465l-.51,1.16h-.683l2.1-4.639h.656l2.108,4.639h-.7Zm-.232-.53-1-2.273-1,2.273Z" transform="translate(-241.07 -384.772)" fill="#777"/>
    <rect id="Rectangle_428" data-name="Rectangle 428" width="0.663" height="4.639" transform="translate(47.776 67.392)" fill="#777"/>
    <path id="Path_641" data-name="Path 641" d="M334.34,452.164H335v4.063h2.512v.577H334.34Z" transform="translate(-284.509 -384.772)" fill="#777"/>
    <path id="Path_642" data-name="Path 642" d="M358.847,456.245a2.277,2.277,0,0,1-.885-.852,2.449,2.449,0,0,1,0-2.425,2.276,2.276,0,0,1,.885-.852,2.739,2.739,0,0,1,2.525,0,2.261,2.261,0,0,1,.881.848,2.483,2.483,0,0,1,0,2.432,2.261,2.261,0,0,1-.881.848,2.739,2.739,0,0,1-2.525,0m2.184-.514a1.7,1.7,0,0,0,.643-.639,1.882,1.882,0,0,0,0-1.823,1.7,1.7,0,0,0-.643-.64,1.823,1.823,0,0,0-.918-.232,1.859,1.859,0,0,0-.924.232,1.69,1.69,0,0,0-.65.64,1.883,1.883,0,0,0,0,1.823,1.688,1.688,0,0,0,.65.639,1.857,1.857,0,0,0,.924.232,1.821,1.821,0,0,0,.918-.232" transform="translate(-304.337 -384.469)" fill="#777"/>
    <path id="Path_643" data-name="Path 643" d="M400.628,456.8l-1-1.425q-.186.013-.291.013h-1.147V456.8h-.663v-4.639h1.81a2.149,2.149,0,0,1,1.418.431,1.461,1.461,0,0,1,.517,1.186,1.553,1.553,0,0,1-.265.915,1.5,1.5,0,0,1-.756.55l1.1,1.557Zm-.351-2.247a1.069,1.069,0,0,0,0-1.547,1.5,1.5,0,0,0-.961-.268h-1.127v2.088h1.127a1.481,1.481,0,0,0,.961-.272" transform="translate(-338.278 -384.772)" fill="#777"/>
    <rect id="Rectangle_429" data-name="Rectangle 429" width="0.663" height="4.639" transform="translate(64.066 67.392)" fill="#777"/>
    <path id="Path_644" data-name="Path 644" d="M447.627,452.164V456.8h-.543l-2.784-3.46v3.46h-.663v-4.639h.544l2.784,3.46v-3.46Z" transform="translate(-377.516 -384.772)" fill="#777"/>
    <path id="Path_645" data-name="Path 645" d="M480.8,454.154h.636v1.809a2.47,2.47,0,0,1-.8.437,3,3,0,0,1-.954.152,2.594,2.594,0,0,1-1.266-.308,2.284,2.284,0,0,1-.885-.848,2.467,2.467,0,0,1,0-2.436,2.246,2.246,0,0,1,.888-.848,2.648,2.648,0,0,1,1.276-.3,2.7,2.7,0,0,1,1.011.182,2.065,2.065,0,0,1,.772.534l-.411.411a1.868,1.868,0,0,0-1.345-.537,1.959,1.959,0,0,0-.951.229,1.675,1.675,0,0,0-.66.636,1.873,1.873,0,0,0,0,1.829,1.7,1.7,0,0,0,.66.639,1.921,1.921,0,0,0,.944.232,1.966,1.966,0,0,0,1.087-.3Z" transform="translate(-406.085 -384.469)" fill="#777"/>
    <rect id="Rectangle_430" data-name="Rectangle 430" width="2.461" height="5.259" transform="translate(31.995 33.725)" fill="#420000"/>
    <rect id="Rectangle_431" data-name="Rectangle 431" width="2.461" height="11.492" transform="translate(36.93 31.187)" fill="#420000"/>
    <rect id="Rectangle_432" data-name="Rectangle 432" width="2.461" height="6.297" transform="translate(14.789 36.382)" fill="#420000"/>
    <rect id="Rectangle_433" data-name="Rectangle 433" width="2.461" height="7.808" transform="translate(14.789 20.78)" fill="#420000"/>
    <rect id="Rectangle_434" data-name="Rectangle 434" width="2.461" height="2.602" transform="translate(14.789 31.177)" fill="#777"/>
    <rect id="Rectangle_435" data-name="Rectangle 435" width="2.461" height="5.259" transform="translate(24.616 33.725)" fill="#420000"/>
    <rect id="Rectangle_436" data-name="Rectangle 436" width="2.461" height="5.259" transform="translate(19.698 33.725)" fill="#420000"/>
    <rect id="Rectangle_437" data-name="Rectangle 437" width="6.241" height="2.602" transform="translate(20.474 36.382)" fill="#420000"/>
    <rect id="Rectangle_438" data-name="Rectangle 438" width="14.758" height="2.595" transform="translate(19.698 31.187)" fill="#420000"/>
    <rect id="Rectangle_439" data-name="Rectangle 439" width="24.595" height="2.595" transform="translate(14.797 25.993)" fill="#420000"/>
    <rect id="Rectangle_440" data-name="Rectangle 440" width="24.595" height="2.595" transform="translate(14.797 20.809)" fill="#420000"/>
    <rect id="Rectangle_441" data-name="Rectangle 441" width="24.602" height="2.595" transform="translate(14.789 41.583)" fill="#420000"/>
    <rect id="Rectangle_442" data-name="Rectangle 442" width="2.461" height="5.259" transform="translate(41.864 33.725)" fill="#420000"/>
    <rect id="Rectangle_443" data-name="Rectangle 443" width="2.461" height="11.492" transform="translate(36.93 31.187)" fill="#420000"/>
    <rect id="Rectangle_444" data-name="Rectangle 444" width="2.461" height="6.297" transform="translate(59.071 36.382)" fill="#420000"/>
    <rect id="Rectangle_445" data-name="Rectangle 445" width="2.461" height="7.808" transform="translate(59.071 20.78)" fill="#420000"/>
    <rect id="Rectangle_446" data-name="Rectangle 446" width="2.461" height="2.602" transform="translate(59.071 31.177)" fill="#777"/>
    <rect id="Rectangle_447" data-name="Rectangle 447" width="2.461" height="5.259" transform="translate(49.244 33.725)" fill="#420000"/>
    <rect id="Rectangle_448" data-name="Rectangle 448" width="2.461" height="5.259" transform="translate(54.161 33.725)" fill="#420000"/>
    <rect id="Rectangle_449" data-name="Rectangle 449" width="5.896" height="2.602" transform="translate(49.999 36.382)" fill="#420000"/>
    <rect id="Rectangle_450" data-name="Rectangle 450" width="14.758" height="2.595" transform="translate(41.865 31.187)" fill="#420000"/>
    <rect id="Rectangle_451" data-name="Rectangle 451" width="24.595" height="2.595" transform="translate(36.93 25.993)" fill="#420000"/>
    <rect id="Rectangle_452" data-name="Rectangle 452" width="24.595" height="2.595" transform="translate(36.93 20.809)" fill="#420000"/>
    <rect id="Rectangle_453" data-name="Rectangle 453" width="24.602" height="2.595" transform="translate(36.93 41.583)" fill="#420000"/>
    <rect id="Rectangle_454" data-name="Rectangle 454" width="2.461" height="5.259" transform="translate(41.864 5.195)" fill="#420000"/>
    <rect id="Rectangle_455" data-name="Rectangle 455" width="2.461" height="11.492" transform="translate(36.93 1.499)" fill="#420000"/>
    <rect id="Rectangle_456" data-name="Rectangle 456" width="2.461" height="6.297" transform="translate(59.071 1.499)" fill="#420000"/>
    <rect id="Rectangle_457" data-name="Rectangle 457" width="2.461" height="7.808" transform="translate(59.071 15.59)" fill="#420000"/>
    <rect id="Rectangle_458" data-name="Rectangle 458" width="2.461" height="2.602" transform="translate(59.071 10.4)" fill="#777"/>
    <rect id="Rectangle_459" data-name="Rectangle 459" width="2.461" height="5.259" transform="translate(49.244 5.195)" fill="#420000"/>
    <rect id="Rectangle_460" data-name="Rectangle 460" width="2.461" height="5.259" transform="translate(54.161 5.195)" fill="#420000"/>
    <rect id="Rectangle_461" data-name="Rectangle 461" width="5.896" height="2.602" transform="translate(49.999 5.195)" fill="#420000"/>
    <rect id="Rectangle_462" data-name="Rectangle 462" width="14.758" height="2.595" transform="translate(41.865 10.396)" fill="#420000"/>
    <rect id="Rectangle_463" data-name="Rectangle 463" width="24.595" height="2.595" transform="translate(36.93 15.59)" fill="#420000"/>
    <rect id="Rectangle_464" data-name="Rectangle 464" width="24.595" height="2.595" transform="translate(36.93 20.774)" fill="#420000"/>
    <rect id="Rectangle_465" data-name="Rectangle 465" width="24.602" height="2.595" transform="translate(36.93)" fill="#420000"/>
    <rect id="Rectangle_466" data-name="Rectangle 466" width="2.461" height="5.259" transform="translate(32.008 5.2)" fill="#420000"/>
    <rect id="Rectangle_467" data-name="Rectangle 467" width="2.461" height="11.492" transform="translate(36.943 1.505)" fill="#420000"/>
    <rect id="Rectangle_468" data-name="Rectangle 468" width="2.461" height="6.297" transform="translate(14.802 1.505)" fill="#420000"/>
    <rect id="Rectangle_469" data-name="Rectangle 469" width="2.461" height="7.808" transform="translate(14.802 15.596)" fill="#420000"/>
    <rect id="Rectangle_470" data-name="Rectangle 470" width="2.461" height="2.602" transform="translate(14.802 10.405)" fill="#777"/>
    <rect id="Rectangle_471" data-name="Rectangle 471" width="2.461" height="5.259" transform="translate(24.629 5.2)" fill="#420000"/>
    <rect id="Rectangle_472" data-name="Rectangle 472" width="2.461" height="5.259" transform="translate(19.711 5.2)" fill="#420000"/>
    <rect id="Rectangle_473" data-name="Rectangle 473" width="5.469" height="2.602" transform="translate(20.929 5.2)" fill="#420000"/>
    <rect id="Rectangle_474" data-name="Rectangle 474" width="14.758" height="2.595" transform="translate(19.711 10.401)" fill="#420000"/>
    <rect id="Rectangle_475" data-name="Rectangle 475" width="24.595" height="2.595" transform="translate(14.809 15.596)" fill="#420000"/>
    <rect id="Rectangle_476" data-name="Rectangle 476" width="24.595" height="2.595" transform="translate(14.809 20.78)" fill="#420000"/>
    <rect id="Rectangle_477" data-name="Rectangle 477" width="24.602" height="2.595" transform="translate(14.802 0.006)" fill="#420000"/>
  </g>
</svg>
