<svg xmlns="http://www.w3.org/2000/svg" width="22.12" height="24.994" viewBox="0 0 22.12 24.994">
  <g id="Group_2" data-name="Group 2" transform="translate(0.246 0.25)">
    <path id="Path_35" data-name="Path 35" d="M-272.256,31.8h-5.613c-1.079,0-2.159-.018-3.238,0a1.836,1.836,0,0,1-1.864-1.422,3.868,3.868,0,0,1,.028-1.147c.184-1.4.39-2.795.589-4.191.2-1.369.4-2.737.591-4.107.165-1.161.325-2.322.488-3.483.088-.626.16-1.254.27-1.876A1.9,1.9,0,0,1-279,14c1.281.007,2.562,0,3.843.005q2.375,0,4.75,0c1.7,0,3.4-.007,5.1.009a1.857,1.857,0,0,1,1.921,1.666q.414,2.908.823,5.817c.238,1.668.482,3.335.719,5,.156,1.1.313,2.2.452,3.3A1.842,1.842,0,0,1-263.21,31.8c-1.518.01-3.037,0-4.555,0h-4.49Zm.029-1.042v0h6.391c.82,0,1.641,0,2.461,0a.836.836,0,0,0,.925-.923q-.276-1.982-.562-3.962c-.254-1.771-.512-3.542-.764-5.314-.223-1.571-.438-3.142-.66-4.713a.872.872,0,0,0-.969-.814c-.353,0-.705,0-1.058,0l-12.544,0a.856.856,0,0,0-.96.793c-.155,1.034-.3,2.07-.442,3.106-.152,1.077-.3,2.155-.453,3.232-.164,1.154-.333,2.307-.5,3.46q-.257,1.792-.51,3.585c-.032.222-.068.444-.09.668-.05.512.353.879.967.879Z" transform="translate(283.004 -7.311)" fill="#333" stroke="#333" stroke-width="0.5"/>
    <path id="Path_36" data-name="Path 36" d="M-202.793-58.441a4.5,4.5,0,0,1,3.928,2.294,4.636,4.636,0,0,1,.6,2.473.577.577,0,0,1-.371.584.486.486,0,0,1-.59-.128.912.912,0,0,1-.174-.5,3.71,3.71,0,0,0-.373-1.692,3.267,3.267,0,0,0-2.9-1.882,3.267,3.267,0,0,0-3.018,1.567,3.58,3.58,0,0,0-.55,2.013.876.876,0,0,1-.159.481.483.483,0,0,1-.585.148.569.569,0,0,1-.39-.569,4.827,4.827,0,0,1,.239-1.679,4.518,4.518,0,0,1,3.379-3.019,3.145,3.145,0,0,1,.455-.066C-203.131-58.431-202.962-58.433-202.793-58.441Z" transform="translate(213.617 58.441)" fill="#333" stroke="#333" stroke-width="0.5"/>
  </g>
</svg>
