<svg id="Icon_ionic-ios-notifications-outline" data-name="Icon ionic-ios-notifications-outline" xmlns="http://www.w3.org/2000/svg" width="20.757" height="25.98" viewBox="0 0 20.757 25.98">
  <path id="Path_569" data-name="Path 569" d="M19.6,28.336a.788.788,0,0,0-.772.62,1.524,1.524,0,0,1-.3.663,1.149,1.149,0,0,1-.979.359,1.168,1.168,0,0,1-.979-.359,1.524,1.524,0,0,1-.3-.663.788.788,0,0,0-.772-.62h0a.793.793,0,0,0-.772.967,2.717,2.717,0,0,0,2.828,2.256A2.712,2.712,0,0,0,20.376,29.3a.8.8,0,0,0-.772-.967Z" transform="translate(-7.189 -5.579)" fill="#333"/>
  <path id="Path_570" data-name="Path 570" d="M27.271,23.439c-1-1.337-2.968-2.12-2.968-8.1,0-6.143-2.675-8.612-5.169-9.2-.234-.059-.4-.138-.4-.388V5.55a1.6,1.6,0,0,0-1.558-1.62h-.039a1.6,1.6,0,0,0-1.558,1.62v.191c0,.244-.169.329-.4.388-2.5.6-5.169,3.062-5.169,9.2,0,5.985-1.968,6.762-2.968,8.1A1.308,1.308,0,0,0,8.07,25.532H26.258A1.309,1.309,0,0,0,27.271,23.439Zm-2.532.382H9.6a.289.289,0,0,1-.214-.481,7.991,7.991,0,0,0,1.364-2.2,15.107,15.107,0,0,0,.929-5.807,10.207,10.207,0,0,1,1.357-5.715A4.166,4.166,0,0,1,15.544,7.8a2.269,2.269,0,0,0,1.208-.691.509.509,0,0,1,.773-.013,2.345,2.345,0,0,0,1.221.7,4.166,4.166,0,0,1,2.513,1.817,10.207,10.207,0,0,1,1.357,5.715,15.107,15.107,0,0,0,.929,5.807,8.081,8.081,0,0,0,1.4,2.232A.273.273,0,0,1,24.739,23.821Z" transform="translate(-6.775 -3.93)" fill="#333"/>
</svg>
